<svg xmlns="http://www.w3.org/2000/svg" viewBox="0 0 301.98 247.47"><defs><style>.a{fill:#fff;}.b{fill:#f47878;}.c{fill:#db6565;}.d{fill:none;}.e{fill:#9e6e46;}.f{fill:#c69c6d;}.g{fill:#93633e;}.h{fill:#b58555;}</style></defs><title>erase</title><path class="a" d="M21.06,35.67c-2.77,1.5-5.62,2.87-8.28,4.53-2.82,1.76-6.1-.65-7-3.06a5.09,5.09,0,0,1,2-5.84c5.38-3.92,10.72-7.89,16.06-11.85s10.56-8,16-11.81a11.83,11.83,0,0,1,4.86-1.8c3.51-.56,5,3.11,4.24,5.43a5.65,5.65,0,0,0-.15,1,9,9,0,0,0,.94-.44L60.13,5.51a5.87,5.87,0,0,1,5.26-.74,4,4,0,0,1,1.48,6.4c-1.16,1.47-2.39,2.89-3.58,4.34a4.51,4.51,0,0,0-.25.38,1.79,1.79,0,0,0,.49-.13c.72-.43,1.43-.87,2.13-1.33a4.82,4.82,0,0,1,5.71,0h0c-2.92,1.54-5.89,3-8.73,4.66-3,1.78-5.93,3.72-8.79,5.73-.38.27-.4,1.35-.27,2,.21,1-.14,1-.87.72-1.64-.6-3.27-1.18-4.92-1.74a3.91,3.91,0,0,0-4.33,2.22c-.56,1.31-1,2.68-1.46,4-.89,2.54-1.79,5.07-2.66,7.61S37.71,44.57,36.9,47A22,22,0,0,1,36,49.57a4.2,4.2,0,0,0,3,6.19c1.12.25,1.18.56.48,1.34-1,1.1-1,2.48-1.23,3.85a13.22,13.22,0,0,0,1,7c.81,2.13,2,4.11,3,6.15.76,1.52,1.49,3,2.32,4.53.38.68.19,1-.4,1.31-3.13,1.83-6.21,3.74-9.38,5.5a59.77,59.77,0,0,1-6.41,3.09,4.2,4.2,0,0,1-4.86-1,4.64,4.64,0,0,1-.91-4.7c.74-2.77,2.87-4.55,4.56-6.64,1.15-1.42,2.41-2.76,3.62-4.14a3.53,3.53,0,0,0,.31-.5,3.28,3.28,0,0,0-.61.07c-1.82.57-3.61,1.3-5.46,1.69s-3.92.41-5.07-1.64a4.27,4.27,0,0,1,.75-5.2c1.76-1.93,3.8-3.61,5.72-5.4l.88-.8a11,11,0,0,0-1,.49C20.45,64.35,14.61,68,8.66,71.48a11.58,11.58,0,0,1-5,1.45A3.34,3.34,0,0,1,.3,70.52a4.47,4.47,0,0,1,.85-4.72C3,64,5,62.37,7,60.69c.85-.73,1.74-1.39,2.61-2.1a4.14,4.14,0,0,0,.47-.53c-.25.05-.51.09-.76.16A16.91,16.91,0,0,1,6,59a3.51,3.51,0,0,1-3.63-4.45,10.6,10.6,0,0,1,3.63-6c4.79-4.09,9.63-8.12,14.44-12.18a7,7,0,0,0,.63-.69l.22-.07a.36.36,0,0,0,.08-.06Z"/><path class="b" d="M43.65,53.95a18.39,18.39,0,0,1,9.45-.11,27.09,27.09,0,0,1,11.51,5.67c1.17,1,1.51.25,1.82-.52.78-1.9,1.44-3.85,2.12-5.78,1.17-3.29,2.34-6.58,3.48-9.88.44-1.27.78-2.56,1.17-3.85a3.27,3.27,0,0,0-2.46-3.2c-.87-.29-1.74-.55-2.6-.84-2.55-.88-5.09-1.78-7.64-2.65-3.39-1.15-6.81-2.2-10.17-3.44-2.39-.88-4.67-.42-5.39,1.44-.79,2-1.47,4.11-2.17,6.18-1.35,4-2.62,8.06-4.05,12a3.05,3.05,0,0,0,.7,3.39A4.34,4.34,0,0,0,43.65,53.95Z"/><path class="c" d="M72.77,47.82c-.83,2.52-1.74,5-2.67,7.51-.78,2.1-1,4.45-2.74,6.14-.11.11,0,.58.12.78.26.38.72.64.91,1,.57,1.2,1.28.82,2,.2a3.87,3.87,0,0,0,1-1.33c.57-1.39,1-2.82,1.55-4.24q1.69-4.81,3.37-9.62c.7-2,1.52-4,2-6.09a4.15,4.15,0,0,0-.47-2.78c-.39-.68-1.34-1-2.07-1.49-.09-.06-.51.21-.59.41a2,2,0,0,0,.06.82,3.61,3.61,0,0,1-.05.83C74.38,42.62,73.62,45.23,72.77,47.82Z"/><path d="M113.39,4.82a3.61,3.61,0,0,0,.82.45,3.6,3.6,0,0,0-.31-1c-1.82-2.65-4.11-4.51-7.58-4.26-1.15.1-2.3.16-3.44.33a7.23,7.23,0,0,0-1.47.54,8,8,0,0,0,1.4.26C106.75,1.18,110.42,2,113.39,4.82Zm-60.82,95A15.12,15.12,0,0,0,50.72,99a13.34,13.34,0,0,1-8-6.78,4.87,4.87,0,0,0-.53-.66c-.08.36-.17.53-.14.66a9.5,9.5,0,0,0,2.68,5.29c2.2,2,5.05,2.1,7.66,2.92.11,0,.28-.08.42-.12C52.75,100.15,52.71,99.89,52.57,99.82Zm249.1,146.83c-1.48-1.22-3-2.42-4.48-3.64-4-3.27-8-6.48-11.83-9.84q-8.81-7.61-17.48-15.4c-5.56-5-11.09-10.09-16.5-15.27q-8.45-8.08-16.64-16.42Q223.28,174.43,212,162.6c-5.85-6.15-11.57-12.41-17.31-18.66q-4.24-4.62-8.3-9.39a45.22,45.22,0,0,1-8.12-13.92c-1.65-4.54-3.13-9.15-4.55-13.77q-1.93-6.23-3.57-12.56c-1.46-5.57-2.8-11.18-4.18-16.77q-.43-1.73-.82-3.48c-.79-3.56-1.53-7.14-2.36-10.69-.58-2.47-1.32-4.9-1.91-7.37a24.66,24.66,0,0,0-3-8.09,12.83,12.83,0,0,0-7.61-5.78,65.76,65.76,0,0,0-6.93-1,2.12,2.12,0,0,1-1-.26c-2.63-2.14-5.18-4.38-7.86-6.45a37.61,37.61,0,0,1-7.05-7.61,72.13,72.13,0,0,0-11.74-13c-2-1.63-3.91-3.31-5.78-5.06a6,6,0,0,0-4.66-2c-2.3.19-4.62.37-6.89.77C93,8.49,87.61,9.37,82.32,10.65a57.05,57.05,0,0,0-9.82,3.52,110.86,110.86,0,0,0-17.91,10,2.2,2.2,0,0,0-1,2.74,5.19,5.19,0,0,1,.11.86,5.73,5.73,0,0,1-.94-.15q-2.26-.74-4.51-1.52a3.72,3.72,0,0,0-4.85,2.22c-.61,1.59-1.13,3.22-1.7,4.82-.85,2.38-1.73,4.75-2.55,7.15-1.06,3.1-1.87,6.31-3.17,9.31a4.26,4.26,0,0,0,3.15,6.13c1.12.23,1,.61.46,1.31a3.7,3.7,0,0,0-.47.64,10.74,10.74,0,0,0-.37,8.22A55.3,55.3,0,0,0,42.35,74c1.6,3.14,3.27,6.26,3.83,9.78a11.31,11.31,0,0,0,3.9,7.36c6.21,5,12.53,9.93,18.79,14.9.92.73,2,1.23,1.92,2.85-.17,3.34-.32,6.72.65,10a4.66,4.66,0,0,0,1,2A11.21,11.21,0,0,0,80.71,124a1.07,1.07,0,0,1,.83.41c.31.57.38,1.28.73,1.81a9.33,9.33,0,0,0,6.83,4.5,3.27,3.27,0,0,1,2.53,1.37c5.06,6.72,11.84,11.3,19.13,15.22,5,2.67,10,5.21,14.48,8.72a56.07,56.07,0,0,1,12.46,13.41c8.43,11.89,12.93,23.44,14.58,26.86,2.37,4.9,4.79,9.77,7.1,14.7,3,6.29,5.85,12.61,8.73,18.93q3.59,7.86,7.07,15.77a3.53,3.53,0,0,0,.93,1.36v.28h.44a2.53,2.53,0,0,0,1.43.12,13,13,0,0,1,2.75,0,1.28,1.28,0,0,0,.73-.1h113a68.32,68.32,0,0,0,7,.07,2,2,0,0,0,.53-.15C301.88,247,301.82,246.78,301.67,246.65ZM64.61,59.51a27.09,27.09,0,0,0-11.51-5.67,18.39,18.39,0,0,0-9.45.11,4.34,4.34,0,0,1-4.25-1.53,3.05,3.05,0,0,1-.7-3.39c1.43-4,2.7-8,4.05-12,.7-2.07,1.37-4.15,2.17-6.18.72-1.86,3-2.32,5.39-1.44,3.36,1.23,6.78,2.29,10.17,3.44,2.55.87,5.09,1.77,7.64,2.65.86.3,1.74.56,2.6.84a3.27,3.27,0,0,1,2.46,3.2c-.39,1.28-.73,2.58-1.17,3.85-1.14,3.3-2.31,6.59-3.48,9.88-.69,1.94-1.35,3.88-2.12,5.78C66.12,59.75,65.79,60.5,64.61,59.51Zm5.74,4c-.67.62-1.38,1-2-.2-.19-.4-.66-.66-.91-1-.14-.21-.24-.67-.12-.78,1.75-1.68,2-4,2.74-6.14.93-2.49,1.84-5,2.67-7.51s1.61-5.2,2.39-7.81a3.62,3.62,0,0,0,.05-.83,2,2,0,0,1-.06-.82c.07-.19.49-.46.59-.41.74.45,1.69.82,2.07,1.49a4.15,4.15,0,0,1,.47,2.78c-.51,2.07-1.32,4.07-2,6.09q-1.68,4.81-3.37,9.62c-.5,1.42-1,2.85-1.55,4.24A3.87,3.87,0,0,1,70.35,63.49ZM109,59.42h0l0-.06Z"/><path class="d" d="M109.07,59.37l0,.06h0Z"/><path class="d" d="M51.4,82.1l.07.37.25-.49a4.67,4.67,0,0,0,.37-.71,27.63,27.63,0,0,1,3.82-7.77c.12-.17.23-.36.35-.54-.24.11-.55.15-.71.33A17.52,17.52,0,0,0,51.4,82.1Z"/><path class="e" d="M88.5,67.8a4.57,4.57,0,0,0-.71.22c-2.08,1-4,2.48-6.52,2.31a4,4,0,0,0-1.42,0,3.44,3.44,0,0,0-1.27,1.05c-.08.1.25.67.51.88,1.1.9,2.26,1.72,3.35,2.62.83.69,1.34.5,1.87-.38,1.23-2.05,2.54-4.06,3.81-6.09C88.26,68.24,88.38,68,88.5,67.8Z"/><path class="e" d="M86.54,76.72c.64,0,1.27.1,2.1.17.91-.27,2.08.34,3.11-.82,2.91-3.25,6-6.35,9-9.51.37-.39.35-.52-.23-.76-1.66-.7-3.25-1.56-4.89-2.31a1.11,1.11,0,0,0-1,.09,28.15,28.15,0,0,0-3,3.36c-2,2.83-3.81,5.74-5.68,8.63C85.56,76.21,85.59,76.69,86.54,76.72Z"/><path class="e" d="M80,39.45c.36,1,.76.78,1.35.48q2.82-1.46,5.62-3a4.33,4.33,0,0,0,.7-.64c-.16-.1-.28-.24-.38-.23-1.64.1-3-1.54-4.89-.53a18.3,18.3,0,0,1-4.11,1.07,2.51,2.51,0,0,0-.65.41c.16.17.31.34.48.5C78.81,38.17,79.77,38.69,80,39.45Z"/><path class="f" d="M75.84,112.06a16.5,16.5,0,0,0-2-1.62l-.23,2.5s0,.08,0,.23a18.34,18.34,0,0,0,.1,1.92c.25,1.71.41,3.47,2.1,4.52,2,1.23,4.08,2.14,6.51,1.41.53-.16.94-.39.42-1C80.48,117.37,78.19,114.69,75.84,112.06Z"/><path class="f" d="M85.07,123c-.08-.12-.26-.17-.46-.29-.1.13-.24.25-.24.36,0,.55-.16,1.28.13,1.61a38.82,38.82,0,0,0,3.09,3.07c.1.1.37,0,.56,0a1.59,1.59,0,0,0-.13-.54Q86.56,125.13,85.07,123Z"/><path class="f" d="M271.42,227.75q-11.09-10.11-21.82-20.63-10.25-10-20.14-20.35c-6.18-6.46-12.19-13.09-18.17-19.74q-8.7-9.67-17.18-19.55c-3.87-4.5-7.62-9.11-11.29-13.78a40.38,40.38,0,0,1-6.3-11.27c-1.25-3.45-2.41-6.93-3.56-10.41-.91-2.74-1.79-5.5-2.58-8.28-.88-3.13-1.62-6.31-2.45-9.46-.88-3.38-1.81-6.76-2.67-10.15-.57-2.27-1-4.56-1.58-6.84q-.91-3.88-1.86-7.75c-.83-3.4-1.61-6.81-2.5-10.2-1-3.81-1.72-7.75-4.28-11S149,43.64,145,43.15a2.88,2.88,0,0,0-.68.08,3.94,3.94,0,0,0,.21.75c.58,1.16,1.19,2.3,1.75,3.46.08.17,0,.43,0,.64-.19-.13-.44-.21-.56-.39-.6-.88-1.11-1.82-1.74-2.67a25.46,25.46,0,0,0-7-6.31,42.73,42.73,0,0,1-12-11.8,60.13,60.13,0,0,0-11.13-11.47c-1.58-1.3-3.07-2.7-4.61-4.05a7.48,7.48,0,0,0-6.76-2c-3.75.74-7.57,1.13-11.31,1.89a78.1,78.1,0,0,0-9.81,2.52,89.12,89.12,0,0,0-11.53,4.69c-3.87,2-7.48,4.43-11.16,6.76-.67.43-1.92.72-1.47,2S58,29.54,59.64,30c4,1.16,7.82,2.64,11.71,4a31.09,31.09,0,0,0,3.2,1.21A4.85,4.85,0,0,0,76.63,35c1.58-.38,3.15-.82,4.71-1.24.5-.14.81-.36.36-.91-1.76-2.16-2.12-4.87-2.92-7.41a2.44,2.44,0,0,1,0-.72,2.15,2.15,0,0,1,.45.49c.31.67.61,1.36.86,2.06,2,5.49,4.82,7.14,9.83,7,2.49-.07,2.56,0,2.4-2.57A20.24,20.24,0,0,1,95,21a3,3,0,0,1,.44-.52,2.3,2.3,0,0,1,0,.75,23.23,23.23,0,0,0-1.71,8.11c0,5.31,2.24,9.63,5.6,13.5,1,1.17,2.19,2.2,3.27,3.31.44.45.69.42,1.14-.07a25.46,25.46,0,0,1,2.39-2.11,1.23,1.23,0,0,1,.44-.14,1.69,1.69,0,0,1-.2.48c-.56.65-1.19,1.24-1.7,1.92-1.71,2.34-1.73,5.07-1.66,7.78a24.8,24.8,0,0,0,1.51,7.94c.37,1,.54.67,1,.19.86-.82,1.78-1.58,2.69-2.33a3,3,0,0,1,.8-.35l0-.06,0,0h0L96.39,73.67q-.77.87-1.52,1.77a3,3,0,0,0-.28.49,1.66,1.66,0,0,0,.65.05c1.3-.47,2.58-1,3.88-1.47a4.4,4.4,0,0,1,.88-.14c-.21.23-.38.54-.64.68A44.08,44.08,0,0,1,93.58,78a23.5,23.5,0,0,1-5.48.93c-3.25.33-5.73-1.4-8.08-3.31-2.88-2.36-5.67-4.83-8.6-7.13a32.92,32.92,0,0,0-4.27-2.53c-.51-.29-.51-.23-.21-.74a.69.69,0,0,0-.05-.64A27.07,27.07,0,0,0,51.61,56c-2.38-.43-4.93-.82-7.27.48a5.85,5.85,0,0,0-3.15,5c-.24,3.15,1.27,5.74,2.56,8.41a15.61,15.61,0,0,0,.82,1.35c.15-.48.26-1,.44-1.45,1.23-3.06,2.51-6.1,3.7-9.18a6,6,0,0,0,.09-1.86c0-.2,0-.4,0-.61.12.12.24.24.37.35a2.67,2.67,0,0,1,.52,3.1c-1,3.08-2.17,6.1-3.14,9.18a7.57,7.57,0,0,0,.51,5.86,21.8,21.8,0,0,1,1.35,4.66c.63,2.64,1.38,5.2,3.52,7.08S56,92,58.19,93.73c3.57,2.84,7.3,5.49,10.84,8.37a127.79,127.79,0,0,1,10.65,9.23,103.08,103.08,0,0,1,8.37,10.19c3.41,4.5,6.64,9.13,10.65,13.14A62,62,0,0,0,112,144.4c5.05,2.89,10.19,5.66,14.7,9.39a82,82,0,0,1,16.18,18.37c2,3.09,4,6.24,5.93,9.37.09.15,1.88,3.3,2.52,4.47q4.67,8.57,9.17,17.23c2.32,4.48,4.49,9,6.71,13.56,1.88,3.83,3.76,7.66,5.6,11.51s3.48,7.44,5.24,11.16q.91,1.92,1.83,3.84H289.18C283.22,238.16,277.23,233,271.42,227.75ZM55.91,73.5a27.63,27.63,0,0,0-3.82,7.77,4.67,4.67,0,0,1-.37.71l-.25.49-.07-.37a17.52,17.52,0,0,1,4.15-8.81c.16-.18.47-.23.71-.33C56.14,73.14,56,73.32,55.91,73.5Z"/><path class="g" d="M70.8,65.65s.08.29.18.37c1.65,1.24,3.31,2.48,5,3.67.16.11.56-.14,1-.27-.37-.49-.54-.74-.75-1-1.06-1.15-2.11-2.3-3.19-3.42-.23-.24-.68-.58-.84-.5A8,8,0,0,0,70.8,65.65Z"/><path class="h" d="M74,60.05c-1.39,3-1.47,3.07.9,5.35.08.08.11.22.21.29,1.44,1,2,2.6,4,2.6,0,.11.73-.12.74,0a18.11,18.11,0,0,0,4.21-1.15c3.17-1.75,6.19-3.74,9.26-5.67a.71.71,0,0,0,.25-.63c-.45-1.17-1-2.31-1.43-3.48a21.78,21.78,0,0,1-1.41-7.82c0-.12,0-.24,0-.36,0,.09.07.18.09.27.5,1.76,1,3.5,1.48,5.27,1.12,4.38,3.32,7.72,8.13,8.59.66.12,1.33.2,2,.3a20.24,20.24,0,0,0-.3-2.19c-1-4.07-1.59-8.14-.31-12.27a1.17,1.17,0,0,0-.23-1A28,28,0,0,1,93.39,37c-.37-.93-.9-.73-1.47-.48s-1.09.63-1.64.94q-3.67,2-7.35,4.05c-1.66.91-3.43,1.69-3.62,4,0,.18-.19.35-.25.54-.86,2.47-1.71,4.94-2.58,7.41C75.68,55.62,75,57.91,74,60.05Z"/><path d="M51.4,82.1l.07.37.25-.49a4.67,4.67,0,0,0,.37-.71,27.63,27.63,0,0,1,3.82-7.77c.12-.17.23-.36.35-.54-.24.11-.55.15-.71.33A17.52,17.52,0,0,0,51.4,82.1ZM301.67,246.65c-1.48-1.22-3-2.42-4.48-3.64-4-3.27-8-6.48-11.83-9.84q-8.81-7.61-17.48-15.4c-5.56-5-11.09-10.09-16.5-15.27q-8.45-8.08-16.64-16.42Q223.28,174.43,212,162.6c-5.85-6.15-11.57-12.41-17.31-18.66q-4.24-4.62-8.3-9.39a45.22,45.22,0,0,1-8.12-13.92c-1.65-4.54-3.13-9.15-4.55-13.77q-1.93-6.23-3.57-12.56c-1.46-5.57-2.8-11.18-4.18-16.77q-.43-1.73-.82-3.48c-.79-3.56-1.53-7.14-2.36-10.69-.58-2.47-1.32-4.9-1.91-7.37a24.66,24.66,0,0,0-3-8.09,12.83,12.83,0,0,0-7.61-5.78,65.76,65.76,0,0,0-6.93-1,2.12,2.12,0,0,1-1-.26c-2.63-2.14-5.18-4.38-7.86-6.45a37.61,37.61,0,0,1-7.05-7.61,72.13,72.13,0,0,0-11.74-13c-2-1.63-3.91-3.31-5.78-5.06a6,6,0,0,0-4.66-2c-2.3.19-4.62.37-6.89.77C93,8.49,87.61,9.37,82.32,10.65a57.05,57.05,0,0,0-9.82,3.52,110.86,110.86,0,0,0-17.91,10,2.2,2.2,0,0,0-1,2.74,5.19,5.19,0,0,1,.11.86,5.73,5.73,0,0,1-.94-.15q-2.26-.74-4.51-1.52a3.72,3.72,0,0,0-4.85,2.22c-.61,1.59-1.13,3.22-1.7,4.82-.85,2.38-1.73,4.75-2.55,7.15-1.06,3.1-1.87,6.31-3.17,9.31a4.26,4.26,0,0,0,3.15,6.13c1.12.23,1,.61.46,1.31a3.7,3.7,0,0,0-.47.64,10.74,10.74,0,0,0-.37,8.22A55.3,55.3,0,0,0,42.35,74c1.6,3.14,3.27,6.26,3.83,9.78a11.31,11.31,0,0,0,3.9,7.36c6.21,5,12.53,9.93,18.79,14.9.92.73,2,1.23,1.92,2.85-.17,3.34-.32,6.72.65,10a4.66,4.66,0,0,0,1,2A11.21,11.21,0,0,0,80.71,124a1.07,1.07,0,0,1,.83.41c.31.57.38,1.28.73,1.81a9.33,9.33,0,0,0,6.83,4.5,3.27,3.27,0,0,1,2.53,1.37c5.06,6.72,11.84,11.3,19.13,15.22,5,2.67,10,5.21,14.48,8.72a56.07,56.07,0,0,1,12.46,13.41c8.43,11.89,12.93,23.44,14.58,26.86,2.37,4.9,4.79,9.77,7.1,14.7,3,6.29,5.85,12.61,8.73,18.93q3.59,7.86,7.07,15.77a3.53,3.53,0,0,0,.93,1.36v.28h.44a2.53,2.53,0,0,0,1.43.12,13,13,0,0,1,2.75,0,1.28,1.28,0,0,0,.73-.1h113a68.32,68.32,0,0,0,7,.07,2,2,0,0,0,.53-.15C301.88,247,301.82,246.78,301.67,246.65ZM39.41,52.41a3.05,3.05,0,0,1-.7-3.39c1.43-4,2.7-8,4.05-12,.7-2.07,1.37-4.15,2.17-6.18.72-1.86,3-2.32,5.39-1.44,3.36,1.23,6.78,2.29,10.17,3.44,2.55.87,5.09,1.77,7.64,2.65.86.3,1.74.56,2.6.84a3.27,3.27,0,0,1,2.46,3.2c-.39,1.28-.73,2.58-1.17,3.85-1.14,3.3-2.31,6.59-3.48,9.88-.69,1.94-1.35,3.88-2.12,5.78-.31.76-.65,1.51-1.82.52a27.09,27.09,0,0,0-11.51-5.67,18.39,18.39,0,0,0-9.45.11A4.34,4.34,0,0,1,39.41,52.41ZM75.15,38.35c.07-.19.49-.46.59-.41.74.45,1.69.82,2.07,1.49a4.15,4.15,0,0,1,.47,2.78c-.51,2.07-1.32,4.07-2,6.09q-1.68,4.81-3.37,9.62c-.5,1.42-1,2.85-1.55,4.24a3.87,3.87,0,0,1-1,1.33c-.67.62-1.38,1-2-.2-.19-.4-.66-.66-.91-1-.14-.21-.24-.67-.12-.78,1.75-1.68,2-4,2.74-6.14.93-2.49,1.84-5,2.67-7.51s1.61-5.2,2.39-7.81a3.62,3.62,0,0,0,.05-.83A2,2,0,0,1,75.15,38.35Zm27,23.08a20.24,20.24,0,0,1,.3,2.19c-.66-.1-1.33-.18-2-.3-4.81-.87-7-4.21-8.13-8.59-.45-1.77-1-3.52-1.48-5.27,0-.09-.06-.18-.09-.27,0,.12,0,.24,0,.36a21.78,21.78,0,0,0,1.41,7.82c.45,1.17,1,2.31,1.43,3.48a.71.71,0,0,1-.25.63c-3.07,1.92-6.09,3.92-9.26,5.67a18.11,18.11,0,0,1-4.21,1.15c0-.11-.73.12-.74,0-2,0-2.59-1.56-4-2.6-.09-.07-.12-.21-.21-.29-2.36-2.28-2.28-2.36-.9-5.35,1-2.15,1.68-4.44,2.47-6.67.88-2.46,1.72-4.94,2.58-7.41.07-.19.24-.35.25-.54.19-2.26,2-3,3.62-4q3.68-2,7.35-4.05c.55-.31,1.07-.69,1.64-.94S93,36,93.39,37a28,28,0,0,0,8.24,11.17,1.17,1.17,0,0,1,.23,1C100.57,53.3,101.17,57.36,102.16,61.43ZM86,75.58c1.88-2.89,3.72-5.8,5.68-8.63a28.15,28.15,0,0,1,3-3.36,1.11,1.11,0,0,1,1-.09c1.64.74,3.23,1.61,4.89,2.31.58.24.6.37.23.76-3,3.16-6.09,6.26-9,9.51-1,1.16-2.21.55-3.11.82-.82-.07-1.46-.15-2.1-.17C85.59,76.69,85.56,76.21,86,75.58Zm-1.65-1c-.53.88-1,1.07-1.87.38C81.36,74,80.2,73.2,79.1,72.3c-.26-.21-.59-.78-.51-.88a3.44,3.44,0,0,1,1.27-1.05,4,4,0,0,1,1.42,0c2.51.17,4.44-1.28,6.52-2.31a4.57,4.57,0,0,1,.71-.22c-.12.22-.24.44-.37.65C86.86,70.48,85.55,72.49,84.32,74.54ZM77,69.42c-.48.13-.89.38-1,.27-1.69-1.19-3.34-2.43-5-3.67-.1-.08-.21-.34-.18-.37a8,8,0,0,1,1.44-1.12c.15-.08.61.27.84.5,1.08,1.12,2.14,2.27,3.19,3.42C76.47,68.67,76.64,68.93,77,69.42ZM87,37q-2.8,1.51-5.62,3c-.58.3-1,.51-1.35-.48-.27-.76-1.23-1.28-1.88-1.91-.17-.16-.32-.33-.48-.5a2.51,2.51,0,0,1,.65-.41,18.3,18.3,0,0,0,4.11-1.07c1.87-1,3.24.63,4.89.53.1,0,.22.13.38.23A4.33,4.33,0,0,1,87,37ZM82.37,121c-2.43.73-4.51-.18-6.51-1.41-1.7-1-1.85-2.81-2.1-4.52a18.34,18.34,0,0,1-.1-1.92c0-.15,0-.19,0-.23l.23-2.5a16.5,16.5,0,0,1,2,1.62c2.35,2.63,4.65,5.31,7,8C83.31,120.63,82.9,120.86,82.37,121Zm5.21,6.75a38.82,38.82,0,0,1-3.09-3.07c-.28-.34-.12-1.06-.13-1.61,0-.11.15-.22.24-.36.2.12.37.17.46.29q1.49,2.1,3,4.23a1.59,1.59,0,0,1,.13.54C88,127.79,87.69,127.87,87.59,127.77ZM179.91,243.3q-.93-1.92-1.83-3.84c-1.75-3.72-3.47-7.45-5.24-11.16s-3.72-7.68-5.6-11.51c-2.22-4.53-4.4-9.08-6.71-13.56q-4.48-8.67-9.17-17.23c-.64-1.18-2.43-4.32-2.52-4.47-2-3.13-3.91-6.28-5.93-9.37a82,82,0,0,0-16.18-18.37c-4.5-3.73-9.64-6.5-14.7-9.39a62,62,0,0,1-13.32-9.74c-4-4-7.24-8.65-10.65-13.14a103.08,103.08,0,0,0-8.37-10.19A127.79,127.79,0,0,0,69,102.1c-3.54-2.88-7.27-5.53-10.84-8.37C56,92,54,90.13,52,88.32s-2.9-4.44-3.52-7.08a21.8,21.8,0,0,0-1.35-4.66,7.57,7.57,0,0,1-.51-5.86c1-3.09,2.14-6.11,3.14-9.18a2.67,2.67,0,0,0-.52-3.1c-.13-.11-.24-.24-.37-.35,0,.2,0,.4,0,.61a6,6,0,0,1-.09,1.86c-1.19,3.08-2.47,6.12-3.7,9.18-.19.47-.3,1-.44,1.45a15.61,15.61,0,0,1-.82-1.35c-1.28-2.67-2.8-5.26-2.56-8.41a5.85,5.85,0,0,1,3.15-5c2.34-1.3,4.89-.91,7.27-.48a27.07,27.07,0,0,1,15.29,8.61.69.69,0,0,1,.05.64c-.3.51-.3.45.21.74a32.92,32.92,0,0,1,4.27,2.53c2.93,2.3,5.71,4.77,8.6,7.13,2.35,1.92,4.83,3.64,8.08,3.31A23.5,23.5,0,0,0,93.58,78a44.08,44.08,0,0,0,5.79-2.94c.26-.14.43-.45.64-.68a4.4,4.4,0,0,0-.88.14c-1.3.48-2.58,1-3.88,1.47a1.66,1.66,0,0,1-.65-.05,3,3,0,0,1,.28-.49q.75-.9,1.52-1.77L109,59.43a3,3,0,0,0-.8.35c-.92.75-1.83,1.51-2.69,2.33-.51.48-.68.81-1-.19A24.8,24.8,0,0,1,103,54c-.08-2.71-.06-5.45,1.66-7.78.5-.69,1.14-1.27,1.7-1.92a1.69,1.69,0,0,0,.2-.48,1.23,1.23,0,0,0-.44.14A25.46,25.46,0,0,0,103.68,46c-.45.49-.7.52-1.14.07C101.47,45,100.3,44,99.28,42.8c-3.37-3.87-5.62-8.19-5.6-13.5a23.23,23.23,0,0,1,1.71-8.11,2.3,2.3,0,0,0,0-.75A3,3,0,0,0,95,21a20.24,20.24,0,0,0-2.64,10.69c.16,2.52.09,2.5-2.4,2.57-5,.14-7.83-1.51-9.83-7-.25-.7-.55-1.38-.86-2.06a2.15,2.15,0,0,0-.45-.49,2.44,2.44,0,0,0,0,.72c.79,2.54,1.16,5.25,2.92,7.41.45.55.14.78-.36.91-1.57.43-3.13.86-4.71,1.24a4.85,4.85,0,0,1-2.08.28A31.09,31.09,0,0,1,71.35,34c-3.89-1.37-7.76-2.86-11.71-4-1.63-.48-2.06-1.59-2.5-2.82s.8-1.54,1.47-2c3.67-2.33,7.29-4.8,11.16-6.76a89.12,89.12,0,0,1,11.53-4.69,78.1,78.1,0,0,1,9.81-2.52c3.74-.76,7.56-1.15,11.31-1.89a7.48,7.48,0,0,1,6.76,2c1.54,1.35,3,2.75,4.61,4.05a60.13,60.13,0,0,1,11.13,11.47,42.73,42.73,0,0,0,12,11.8,25.46,25.46,0,0,1,7,6.31c.63.85,1.15,1.79,1.74,2.67.12.18.37.26.56.39,0-.22.11-.47,0-.64-.57-1.16-1.18-2.3-1.75-3.46a3.94,3.94,0,0,1-.21-.75,2.88,2.88,0,0,1,.68-.08c4,.49,7.47,2,10.06,5.22s3.27,7.16,4.28,11c.9,3.38,1.68,6.8,2.5,10.2q.94,3.87,1.86,7.75c.54,2.28,1,4.57,1.58,6.84.86,3.39,1.79,6.76,2.67,10.15.82,3.15,1.56,6.32,2.45,9.46.78,2.78,1.67,5.53,2.58,8.28,1.15,3.48,2.31,7,3.56,10.41a40.38,40.38,0,0,0,6.3,11.27c3.67,4.66,7.43,9.27,11.29,13.78q8.48,9.87,17.18,19.55c6,6.65,12,13.28,18.17,19.74q9.89,10.35,20.14,20.35,10.74,10.49,21.82,20.63c5.81,5.3,11.8,10.41,17.76,15.55ZM113.39,4.82a3.61,3.61,0,0,0,.82.45,3.6,3.6,0,0,0-.31-1c-1.82-2.65-4.11-4.51-7.58-4.26-1.15.1-2.3.16-3.44.33a7.23,7.23,0,0,0-1.47.54,8,8,0,0,0,1.4.26C106.75,1.18,110.42,2,113.39,4.82Zm-60.82,95A15.12,15.12,0,0,0,50.72,99a13.34,13.34,0,0,1-8-6.78,4.87,4.87,0,0,0-.53-.66c-.08.36-.17.53-.14.66a9.5,9.5,0,0,0,2.68,5.29c2.2,2,5.05,2.1,7.66,2.92.11,0,.28-.08.42-.12C52.75,100.15,52.71,99.89,52.57,99.82Z"/></svg>